<svg width="29" height="32" viewBox="0 0 29 32" fill="none" xmlns="http://www.w3.org/2000/svg">
<path opacity="0.5" d="M4.45329 22.6663C8.13519 29.0435 16.2897 31.2285 22.667 27.5466C25.2664 26.0458 27.1694 23.8019 28.2623 21.2381C29.8507 17.5122 29.7284 13.1107 27.5473 9.33296C25.3662 5.5552 21.6156 3.24856 17.5947 2.76117C14.8279 2.4258 11.9331 2.95181 9.33363 4.45262C2.95639 8.13452 0.77139 16.2891 4.45329 22.6663Z" fill="#2FC76D"/>
<path d="M18.5871 2.91978C18.2584 2.85462 17.9271 2.80176 17.594 2.76138C17.2597 2.72085 16.9234 2.6929 16.5861 2.67773C16.5733 2.73476 16.5582 2.80508 16.5417 2.88799C16.4954 3.12061 16.4377 3.45295 16.3879 3.86952C16.3222 4.41789 16.7135 4.91565 17.2619 4.98131C17.8102 5.04696 18.308 4.65565 18.3737 4.10728C18.4169 3.74636 18.466 3.46515 18.5032 3.27861C18.5217 3.18539 18.5373 3.11596 18.5475 3.0722C18.5527 3.05032 18.5565 3.03488 18.5587 3.0261L18.5604 3.0192L18.5608 3.01771L18.5871 2.91978Z" fill="#2FC76D"/>
<path d="M3.37836 11.7003C3.48642 11.3826 3.60644 11.0689 3.73824 10.7599C3.87019 10.4505 4.01394 10.1457 4.16928 9.84635C4.22513 9.86378 4.29366 9.8859 4.37384 9.91309C4.59846 9.98929 4.91508 10.1056 5.30078 10.2706C5.80851 10.488 6.04393 11.0757 5.8266 11.5835C5.60928 12.0912 5.02151 12.3266 4.51378 12.1093C4.1796 11.9663 3.91151 11.8682 3.73139 11.8071C3.64137 11.7766 3.57347 11.7553 3.53043 11.7423C3.50892 11.7358 3.49364 11.7314 3.48494 11.7289L3.47869 11.7272L3.37836 11.7003Z" fill="#2FC76D"/>
<path d="M15.4136 29.3219C15.0764 29.3068 14.7403 29.2789 14.4061 29.2384C14.0728 29.198 13.7414 29.1451 13.4126 29.08L13.4389 28.9818L13.4393 28.9803L13.4411 28.9735C13.4433 28.9647 13.4471 28.9492 13.4522 28.9274C13.4625 28.8836 13.478 28.8142 13.4966 28.7209C13.5337 28.5344 13.5829 28.2532 13.6261 27.8923C13.6917 27.3439 14.1895 26.9526 14.7379 27.0182C15.2862 27.0839 15.6776 27.5817 15.6119 28.13C15.562 28.5466 15.5044 28.8789 15.4581 29.1116C15.4416 29.1945 15.4264 29.2649 15.4136 29.3219Z" fill="#2FC76D"/>
<path d="M28.621 20.2992C28.5131 20.6164 28.3932 20.9296 28.2616 21.2383C28.1296 21.5481 27.9856 21.8533 27.8301 22.1531C27.7743 22.1357 27.7059 22.1136 27.6259 22.0865C27.4013 22.0103 27.0847 21.894 26.699 21.7289C26.1912 21.5116 25.9558 20.9238 26.1732 20.4161C26.3905 19.9084 26.9782 19.6729 27.486 19.8903C27.8202 20.0333 28.0882 20.1313 28.2684 20.1924C28.3584 20.223 28.4263 20.2442 28.4693 20.2572C28.4908 20.2637 28.5061 20.2681 28.5148 20.2706L28.5208 20.2723L28.621 20.2992Z" fill="#2FC76D"/>
<path d="M18.3381 7.21924C18.288 6.66923 17.8015 6.26397 17.2515 6.31406C16.7015 6.36416 16.2963 6.85064 16.3464 7.40064C16.4199 8.20761 16.5563 9.08577 16.7855 10.0107C16.9184 10.5468 17.4606 10.8737 17.9967 10.7408C18.5328 10.608 18.8596 10.0657 18.7268 9.52964C18.5241 8.71164 18.4032 7.93427 18.3381 7.21924Z" fill="#2FC76D"/>
<path d="M8.37957 12.0003C7.9283 11.6819 7.30436 11.7896 6.98598 12.2409C6.66759 12.6922 6.77532 13.3161 7.22659 13.6345C7.81326 14.0484 8.42607 14.5417 9.03312 15.1263C9.43095 15.5094 10.064 15.4974 10.4471 15.0996C10.8302 14.7018 10.8182 14.0687 10.4204 13.6856C9.73397 13.0246 9.04168 12.4674 8.37957 12.0003Z" fill="#2FC76D"/>
<path d="M19.7825 12.4631C19.5434 11.9653 18.9459 11.7556 18.4481 11.9948C17.9503 12.234 17.7406 12.8314 17.9798 13.3293C18.1663 13.7173 18.3718 14.108 18.598 14.4998C18.8241 14.8915 19.0597 15.2648 19.3026 15.6204C19.6141 16.0764 20.2363 16.1936 20.6924 15.882C21.1484 15.5705 21.2656 14.9483 20.954 14.4922C20.7392 14.1777 20.5306 13.8472 20.33 13.4998C20.1294 13.1524 19.9475 12.8064 19.7825 12.4631Z" fill="#2FC76D"/>
<path d="M12.6972 16.3792C12.3856 15.9232 11.7634 15.806 11.3074 16.1175C10.8513 16.429 10.7342 17.0513 11.0457 17.5073C11.2605 17.8218 11.4692 18.1524 11.6697 18.4998C11.8703 18.8472 12.0523 19.1931 12.2172 19.5364C12.4564 20.0343 13.0538 20.2439 13.5517 20.0047C14.0495 19.7655 14.2591 19.1681 14.0199 18.6703C13.8335 18.2822 13.628 17.8915 13.4018 17.4998C13.1756 17.108 12.94 16.7347 12.6972 16.3792Z" fill="#2FC76D"/>
<path d="M22.9666 16.8733C22.5688 16.4902 21.9357 16.5021 21.5527 16.9C21.1696 17.2978 21.1815 17.9308 21.5794 18.3139C22.2658 18.9749 22.9581 19.5321 23.6202 19.9993C24.0715 20.3177 24.6954 20.2099 25.0138 19.7587C25.3322 19.3074 25.2244 18.6835 24.7732 18.3651C24.1865 17.9512 23.5737 17.4578 22.9666 16.8733Z" fill="#2FC76D"/>
<path d="M15.2142 21.9888C15.0814 21.4528 14.5391 21.1259 14.0031 21.2587C13.467 21.3916 13.1401 21.9338 13.273 22.4699C13.4757 23.2879 13.5965 24.0653 13.6616 24.7803C13.7117 25.3303 14.1982 25.7356 14.7482 25.6855C15.2982 25.6354 15.7035 25.1489 15.6534 24.5989C15.5799 23.7919 15.4435 22.9138 15.2142 21.9888Z" fill="#2FC76D"/>
</svg>
